<?xml version="1.0" encoding="utf-8"?>
<!-- Generator: Adobe Illustrator 28.0.0, SVG Export Plug-In . SVG Version: 6.00 Build 0)  -->
<svg version="1.1" id="图层_1" xmlns="http://www.w3.org/2000/svg" xmlns:xlink="http://www.w3.org/1999/xlink" x="0px" y="0px"
	 viewBox="0 0 198.8 200" style="enable-background:new 0 0 198.8 200;" xml:space="preserve">
<style type="text/css">
	.st0{fill:#FFFFFF;}
</style>
<rect x="42.8" y="44.7" class="st0" width="112.2" height="112.2"/>
<g>
	<path d="M95.1,0c0.2,0,0.3,0,0.5,0c0.8,0.1,1.6,0.2,2.4,0.3c7.2,0.7,14.5,0.6,21.5,2.1c50.9,10.6,84.4,57.1,79,108.9
		c-4.4,42-36.4,77.6-77.7,86.3c-5.3,1.1-10.8,1.6-16.2,2.4c-3.5,0-7,0-10.5,0c-3-0.4-6.1-0.7-9.1-1.1C31.4,190.7-5.6,142.1,0.7,88
		c5-43.1,38.2-78.4,80.9-86.1C86.1,1.1,90.6,0.6,95.1,0z M143.5,131.9c-9,6.7-17.8,13.2-27,20.1c11.3,0,21.8,0,32.4,0
		c0-34.8,0-69.4,0-104c-33,0-65.8,0-98.6,0c0,34.8,0,69.4,0,104.1c0.9,0,1.7,0,2.4,0c9.2,0,18.5-0.1,27.7,0.1c2.1,0,2.8-0.7,3.4-2.6
		c4.9-15.6,9.9-31.3,14.9-46.9c0.3-0.8,0.6-1.6,1-2.6C114.4,110.8,128.8,121.3,143.5,131.9z"/>
</g>
</svg>
