<?xml version="1.0" encoding="UTF-8"?>
<svg xmlns="http://www.w3.org/2000/svg" version="1.1" viewBox="0 0 1000 1000">
  <defs>
    <style>
      .cls-1 {
        fill: #231815;
      }

      .cls-1, .cls-2, .cls-3, .cls-4 {
        stroke-width: 0px;
      }

      .cls-2 {
        fill: #eeeeef;
      }

      .cls-3 {
        fill: #000;
      }

      .cls-5 {
        isolation: isolate;
      }

      .cls-4 {
        fill: #fff;
      }
    </style>
  </defs>
  <!-- Generator: Adobe Illustrator 28.6.0, SVG Export Plug-In . SVG Version: 1.0.2 Build 62)  -->
  <g>
    <g id="_图层_1">
      <polygon class="cls-2" points="56.4 38.2 56.4 961 352.2 961 426.1 730.3 500.1 499.6 574.1 730.3 648 961 943.8 961 943.8 38.2 56.4 38.2"/>
      <polygon id="_组_1" class="cls-2" points="56.4 38.2 56.4 961 352.2 961 426.1 730.3 500.1 499.6 574.1 730.3 648 961 943.8 961 943.8 38.2 56.4 38.2"/>
      <polygon class="cls-3" points="500.1 499.6 648 961 890.1 781.6 500.1 499.6"/>
      <g class="cls-5">
        <g class="cls-5">
          <path class="cls-1" d="M257.2,216.9h-10.7v-68.9l-25.5,68.9h-11l-25.3-68.6v68.6h-9.8v-84.6h14.4l26.5,72.4,26.5-72.4h14.7v84.6Z"/>
          <path class="cls-1" d="M285.2,132.3v84.6h-10.8v-84.6h10.8Z"/>
          <path class="cls-1" d="M326,181.8h-12.9v35.1h-10.8v-84.6h31.4c4.8,0,9,1,12.6,3.1,3.6,2,6.4,4.9,8.3,8.7,2,3.7,2.9,8.1,2.9,13s-1.8,12.4-5.3,16.8c-3.5,4.4-8.4,7-14.6,7.8l25.3,35.3h-13.1l-23.9-35.1ZM313.2,172.9h18.6c4.9,0,8.6-1.4,11.2-4.1,2.6-2.7,3.9-6.7,3.9-11.7s-1.3-8.9-3.9-11.7c-2.6-2.8-6.3-4.2-11.2-4.2h-18.6v31.7Z"/>
        </g>
      </g>
      <g class="cls-5">
        <g class="cls-5">
          <path class="cls-4" d="M648.9,711.8l-12.9-17.8-16.3,5.4-4.3-5.9,56.5-17.4,4.9,6.7-33.4,49.3-4.6-6.3,10-14.1ZM652.7,706.5l16.5-23.3-27,8.9,10.5,14.4Z"/>
          <path class="cls-4" d="M692.6,729l-4.9,3.6c-.5-.8-.9-1.5-1.3-2.1-1.9-2.6-4.3-4.1-7.3-4.4-3-.3-6,.7-9.1,3l-18.7,13.9-3.9-5.4,25.2-18.7c3.1-2.3,5.6-4.3,7.6-6l3.4,4.7c-1.2,1.2-3.1,2.7-5.4,4.5,2.7-.6,5.3-.4,7.6.5,2.3.9,4.3,2.4,5.9,4.7.4.6.7,1.2.9,1.8Z"/>
          <path class="cls-4" d="M698.3,747.2l-20.1,14.9c-1.5,1.1-2.4,2.4-2.6,3.7-.2,1.3.3,2.8,1.4,4.3,1,1.4,2,2.5,2.9,3.1l-4.3,3.2c-1.4-.8-2.7-2.1-3.9-3.8-2-2.8-2.8-5.6-2.4-8.4.4-2.8,2-5.3,4.8-7.3l20.3-15.1-3.7-5.1,4.4-3.3,3.7,5.1,8.2-6.1,3.9,5.4-8.2,6.1,5.8,8-4.4,3.3-5.8-8Z"/>
        </g>
      </g>
    </g>
  </g>
</svg>